<svg width="502" height="408" viewBox="0 0 502 408" fill="none" xmlns="http://www.w3.org/2000/svg">
<g clip-path="url(#clip0)">
<path d="M11.704 23.668C9.76267 23.668 8.008 23.2387 6.44 22.38C4.89067 21.5213 3.668 20.336 2.772 18.824C1.89467 17.2933 1.456 15.5853 1.456 13.7C1.456 11.8147 1.89467 10.116 2.772 8.604C3.668 7.07333 4.9 5.87867 6.468 5.02C8.036 4.16133 9.79067 3.732 11.732 3.732C13.188 3.732 14.532 3.97467 15.764 4.46C16.996 4.94533 18.0413 5.65467 18.9 6.588L17.584 7.904C16.0533 6.35467 14.1213 5.58 11.788 5.58C10.2387 5.58 8.82933 5.93467 7.56 6.644C6.29067 7.35333 5.292 8.324 4.564 9.556C3.85467 10.788 3.5 12.1693 3.5 13.7C3.5 15.2307 3.85467 16.612 4.564 17.844C5.292 19.076 6.29067 20.0467 7.56 20.756C8.82933 21.4653 10.2387 21.82 11.788 21.82C14.14 21.82 16.072 21.036 17.584 19.468L18.9 20.784C18.0413 21.7173 16.9867 22.436 15.736 22.94C14.504 23.4253 13.16 23.668 11.704 23.668ZM29.2608 23.64C27.8421 23.64 26.5634 23.3227 25.4248 22.688C24.2861 22.0347 23.3901 21.1387 22.7368 20C22.0834 18.8613 21.7568 17.5733 21.7568 16.136C21.7568 14.6987 22.0834 13.4107 22.7368 12.272C23.3901 11.1333 24.2861 10.2467 25.4248 9.612C26.5634 8.97733 27.8421 8.66 29.2608 8.66C30.6794 8.66 31.9581 8.97733 33.0968 9.612C34.2354 10.2467 35.1221 11.1333 35.7568 12.272C36.4101 13.4107 36.7368 14.6987 36.7368 16.136C36.7368 17.5733 36.4101 18.8613 35.7568 20C35.1221 21.1387 34.2354 22.0347 33.0968 22.688C31.9581 23.3227 30.6794 23.64 29.2608 23.64ZM29.2608 21.876C30.3061 21.876 31.2394 21.6427 32.0608 21.176C32.9008 20.6907 33.5541 20.0093 34.0208 19.132C34.4874 18.2547 34.7208 17.256 34.7208 16.136C34.7208 15.016 34.4874 14.0173 34.0208 13.14C33.5541 12.2627 32.9008 11.5907 32.0608 11.124C31.2394 10.6387 30.3061 10.396 29.2608 10.396C28.2154 10.396 27.2728 10.6387 26.4328 11.124C25.6114 11.5907 24.9581 12.2627 24.4728 13.14C24.0061 14.0173 23.7728 15.016 23.7728 16.136C23.7728 17.256 24.0061 18.2547 24.4728 19.132C24.9581 20.0093 25.6114 20.6907 26.4328 21.176C27.2728 21.6427 28.2154 21.876 29.2608 21.876ZM49.2994 8.66C51.1474 8.66 52.6128 9.20133 53.6954 10.284C54.7968 11.348 55.3474 12.9067 55.3474 14.96V23.5H53.3594V15.156C53.3594 13.6253 52.9768 12.4587 52.2114 11.656C51.4461 10.8533 50.3541 10.452 48.9354 10.452C47.3488 10.452 46.0888 10.928 45.1554 11.88C44.2408 12.8133 43.7834 14.1107 43.7834 15.772V23.5H41.7954V8.772H43.6994V11.488C44.2408 10.592 44.9874 9.90133 45.9394 9.416C46.9101 8.912 48.0301 8.66 49.2994 8.66ZM69.5007 22.604C69.1273 22.94 68.6607 23.2013 68.1007 23.388C67.5593 23.556 66.99 23.64 66.3927 23.64C65.0113 23.64 63.9473 23.2667 63.2007 22.52C62.454 21.7733 62.0807 20.7187 62.0807 19.356V10.452H59.4487V8.772H62.0807V5.552H64.0687V8.772H68.5487V10.452H64.0687V19.244C64.0687 20.1213 64.2833 20.7933 64.7127 21.26C65.1607 21.708 65.7953 21.932 66.6167 21.932C67.0273 21.932 67.4193 21.8667 67.7927 21.736C68.1847 21.6053 68.5207 21.4187 68.8007 21.176L69.5007 22.604ZM79.2717 8.66C81.1943 8.66 82.669 9.14533 83.6957 10.116C84.7223 11.068 85.2357 12.4867 85.2357 14.372V23.5H83.3317V21.204C82.8837 21.9693 82.221 22.5667 81.3437 22.996C80.485 23.4253 79.4583 23.64 78.2637 23.64C76.621 23.64 75.3143 23.248 74.3437 22.464C73.373 21.68 72.8877 20.644 72.8877 19.356C72.8877 18.1053 73.3357 17.0973 74.2317 16.332C75.1463 15.5667 76.593 15.184 78.5717 15.184H83.2477V14.288C83.2477 13.0187 82.893 12.0573 82.1837 11.404C81.4743 10.732 80.4383 10.396 79.0757 10.396C78.1423 10.396 77.2463 10.5547 76.3877 10.872C75.529 11.1707 74.7917 11.5907 74.1757 12.132L73.2797 10.648C74.0263 10.0133 74.9223 9.528 75.9677 9.192C77.013 8.83733 78.1143 8.66 79.2717 8.66ZM78.5717 22.072C79.6917 22.072 80.653 21.82 81.4557 21.316C82.2583 20.7933 82.8557 20.0467 83.2477 19.076V16.668H78.6277C76.1077 16.668 74.8477 17.5453 74.8477 19.3C74.8477 20.1587 75.1743 20.84 75.8277 21.344C76.481 21.8293 77.3957 22.072 78.5717 22.072ZM97.794 23.64C96.338 23.64 95.0313 23.3227 93.874 22.688C92.7353 22.0533 91.8393 21.1667 91.186 20.028C90.5326 18.8707 90.206 17.5733 90.206 16.136C90.206 14.6987 90.5326 13.4107 91.186 12.272C91.8393 11.1333 92.7353 10.2467 93.874 9.612C95.0313 8.97733 96.338 8.66 97.794 8.66C99.0633 8.66 100.193 8.912 101.182 9.416C102.19 9.90133 102.983 10.62 103.562 11.572L102.078 12.58C101.593 11.852 100.977 11.3107 100.23 10.956C99.4833 10.5827 98.6713 10.396 97.794 10.396C96.73 10.396 95.7686 10.6387 94.91 11.124C94.07 11.5907 93.4073 12.2627 92.922 13.14C92.4553 14.0173 92.222 15.016 92.222 16.136C92.222 17.2747 92.4553 18.2827 92.922 19.16C93.4073 20.0187 94.07 20.6907 94.91 21.176C95.7686 21.6427 96.73 21.876 97.794 21.876C98.6713 21.876 99.4833 21.6987 100.23 21.344C100.977 20.9893 101.593 20.448 102.078 19.72L103.562 20.728C102.983 21.68 102.19 22.408 101.182 22.912C100.174 23.3973 99.0446 23.64 97.794 23.64ZM116.387 22.604C116.014 22.94 115.547 23.2013 114.987 23.388C114.446 23.556 113.877 23.64 113.279 23.64C111.898 23.64 110.834 23.2667 110.087 22.52C109.341 21.7733 108.967 20.7187 108.967 19.356V10.452H106.335V8.772H108.967V5.552H110.955V8.772H115.435V10.452H110.955V19.244C110.955 20.1213 111.17 20.7933 111.599 21.26C112.047 21.708 112.682 21.932 113.503 21.932C113.914 21.932 114.306 21.8667 114.679 21.736C115.071 21.6053 115.407 21.4187 115.687 21.176L116.387 22.604ZM137.651 23.668C135.112 23.668 133.133 22.94 131.715 21.484C130.296 20.028 129.587 17.9093 129.587 15.128V3.9H131.659V15.044C131.659 17.3213 132.172 19.02 133.199 20.14C134.225 21.26 135.709 21.82 137.651 21.82C139.611 21.82 141.104 21.26 142.131 20.14C143.157 19.02 143.671 17.3213 143.671 15.044V3.9H145.687V15.128C145.687 17.9093 144.977 20.028 143.559 21.484C142.159 22.94 140.189 23.668 137.651 23.668ZM156.458 23.64C155.264 23.64 154.116 23.472 153.014 23.136C151.932 22.7813 151.082 22.3427 150.466 21.82L151.362 20.252C151.978 20.7373 152.753 21.1387 153.686 21.456C154.62 21.7547 155.59 21.904 156.598 21.904C157.942 21.904 158.932 21.6987 159.566 21.288C160.22 20.8587 160.546 20.2613 160.546 19.496C160.546 18.9547 160.369 18.5347 160.014 18.236C159.66 17.9187 159.212 17.6853 158.67 17.536C158.129 17.368 157.41 17.2093 156.514 17.06C155.32 16.836 154.358 16.612 153.63 16.388C152.902 16.1453 152.277 15.744 151.754 15.184C151.25 14.624 150.998 13.8493 150.998 12.86C150.998 11.628 151.512 10.62 152.538 9.836C153.565 9.052 154.993 8.66 156.822 8.66C157.774 8.66 158.726 8.79067 159.678 9.052C160.63 9.29467 161.414 9.62133 162.03 10.032L161.162 11.628C159.949 10.788 158.502 10.368 156.822 10.368C155.553 10.368 154.592 10.592 153.938 11.04C153.304 11.488 152.986 12.076 152.986 12.804C152.986 13.364 153.164 13.812 153.518 14.148C153.892 14.484 154.349 14.736 154.89 14.904C155.432 15.0533 156.178 15.212 157.13 15.38C158.306 15.604 159.249 15.828 159.958 16.052C160.668 16.276 161.274 16.6587 161.778 17.2C162.282 17.7413 162.534 18.488 162.534 19.44C162.534 20.728 161.993 21.7547 160.91 22.52C159.846 23.2667 158.362 23.64 156.458 23.64Z" fill="white"/>
<path d="M11.8364 101.5H10.4155L4.56348 92.5132H4.50488C4.58301 93.5679 4.62207 94.5347 4.62207 95.4136V101.5H3.47217V90.792H4.87842L10.7158 99.7422H10.7744C10.7646 99.6104 10.7427 99.188 10.7085 98.4751C10.6743 97.7573 10.6621 97.2446 10.6719 96.937V90.792H11.8364V101.5ZM20.0342 101.5L19.7925 100.357H19.7339C19.3335 100.86 18.9331 101.202 18.5327 101.383C18.1372 101.559 17.6416 101.646 17.0459 101.646C16.25 101.646 15.625 101.441 15.1709 101.031C14.7217 100.621 14.4971 100.038 14.4971 99.2808C14.4971 97.6597 15.7935 96.8101 18.3862 96.7319L19.7485 96.688V96.1899C19.7485 95.5601 19.6118 95.0962 19.3384 94.7983C19.0698 94.4956 18.6377 94.3442 18.042 94.3442C17.373 94.3442 16.6162 94.5493 15.7715 94.9595L15.3979 94.0293C15.7935 93.8145 16.2256 93.646 16.6943 93.5239C17.168 93.4019 17.6416 93.3408 18.1152 93.3408C19.0723 93.3408 19.7803 93.5532 20.2393 93.978C20.7031 94.4028 20.9351 95.084 20.9351 96.0215V101.5H20.0342ZM17.2876 100.643C18.0444 100.643 18.6377 100.436 19.0674 100.021C19.502 99.6055 19.7192 99.0244 19.7192 98.2773V97.5522L18.5034 97.6035C17.5366 97.6377 16.8384 97.7891 16.4087 98.0576C15.9839 98.3213 15.7715 98.7339 15.7715 99.2954C15.7715 99.7349 15.9033 100.069 16.167 100.299C16.4355 100.528 16.8091 100.643 17.2876 100.643ZM34.1792 101.5V96.2778C34.1792 95.6382 34.0425 95.1597 33.769 94.8423C33.4956 94.52 33.0708 94.3589 32.4946 94.3589C31.7378 94.3589 31.1787 94.5762 30.8174 95.0107C30.4561 95.4453 30.2754 96.1143 30.2754 97.0176V101.5H29.0596V96.2778C29.0596 95.6382 28.9229 95.1597 28.6494 94.8423C28.376 94.52 27.9487 94.3589 27.3677 94.3589C26.606 94.3589 26.0469 94.5884 25.6904 95.0474C25.3389 95.5015 25.1631 96.2485 25.1631 97.2886V101.5H23.9473V93.4727H24.936L25.1338 94.5713H25.1924C25.4219 94.1807 25.7441 93.8755 26.1592 93.6558C26.5791 93.436 27.0479 93.3262 27.5654 93.3262C28.8203 93.3262 29.6406 93.7803 30.0264 94.6885H30.085C30.3242 94.2686 30.6709 93.9365 31.125 93.6924C31.5791 93.4482 32.0967 93.3262 32.6777 93.3262C33.5859 93.3262 34.2646 93.5605 34.7139 94.0293C35.168 94.4932 35.395 95.2378 35.395 96.2632V101.5H34.1792ZM41.7983 101.646C40.6118 101.646 39.6743 101.285 38.9858 100.562C38.3022 99.8398 37.9604 98.8364 37.9604 97.5522C37.9604 96.2583 38.2778 95.2305 38.9126 94.4688C39.5522 93.707 40.4092 93.3262 41.4834 93.3262C42.4893 93.3262 43.2852 93.6582 43.8711 94.3223C44.457 94.9814 44.75 95.853 44.75 96.937V97.7061H39.2202C39.2446 98.6484 39.4814 99.3638 39.9307 99.8521C40.3848 100.34 41.022 100.584 41.8423 100.584C42.7065 100.584 43.561 100.404 44.4058 100.042V101.126C43.9761 101.312 43.5684 101.444 43.1826 101.522C42.8018 101.605 42.3403 101.646 41.7983 101.646ZM41.4688 94.3442C40.8242 94.3442 40.3091 94.5542 39.9233 94.9741C39.5425 95.394 39.3179 95.9751 39.2495 96.7173H43.4463C43.4463 95.9507 43.2754 95.3647 42.9336 94.9595C42.5918 94.5493 42.1035 94.3442 41.4688 94.3442Z" fill="white"/>
<rect x="3" y="113" width="450" height="2" fill="white"/>
<path d="M9.44141 168.5H3.47217V157.792H9.44141V158.898H4.71729V162.348H9.15576V163.446H4.71729V167.387H9.44141V168.5ZM22.3706 168.5V163.278C22.3706 162.638 22.2339 162.16 21.9604 161.842C21.687 161.52 21.2622 161.359 20.686 161.359C19.9292 161.359 19.3701 161.576 19.0088 162.011C18.6475 162.445 18.4668 163.114 18.4668 164.018V168.5H17.251V163.278C17.251 162.638 17.1143 162.16 16.8408 161.842C16.5674 161.52 16.1401 161.359 15.5591 161.359C14.7974 161.359 14.2383 161.588 13.8818 162.047C13.5303 162.501 13.3545 163.249 13.3545 164.289V168.5H12.1387V160.473H13.1274L13.3252 161.571H13.3838C13.6133 161.181 13.9355 160.875 14.3506 160.656C14.7705 160.436 15.2393 160.326 15.7568 160.326C17.0117 160.326 17.832 160.78 18.2178 161.688H18.2764C18.5156 161.269 18.8623 160.937 19.3164 160.692C19.7705 160.448 20.2881 160.326 20.8691 160.326C21.7773 160.326 22.4561 160.561 22.9053 161.029C23.3594 161.493 23.5864 162.238 23.5864 163.263V168.5H22.3706ZM31.5352 168.5L31.2935 167.357H31.2349C30.8345 167.86 30.4341 168.202 30.0337 168.383C29.6382 168.559 29.1426 168.646 28.5469 168.646C27.751 168.646 27.126 168.441 26.6719 168.031C26.2227 167.621 25.998 167.038 25.998 166.281C25.998 164.66 27.2944 163.81 29.8872 163.732L31.2495 163.688V163.19C31.2495 162.56 31.1128 162.096 30.8394 161.798C30.5708 161.496 30.1387 161.344 29.543 161.344C28.874 161.344 28.1172 161.549 27.2725 161.959L26.8989 161.029C27.2944 160.814 27.7266 160.646 28.1953 160.524C28.6689 160.402 29.1426 160.341 29.6162 160.341C30.5732 160.341 31.2812 160.553 31.7402 160.978C32.2041 161.403 32.436 162.084 32.436 163.021V168.5H31.5352ZM28.7886 167.643C29.5454 167.643 30.1387 167.436 30.5684 167.021C31.0029 166.605 31.2202 166.024 31.2202 165.277V164.552L30.0044 164.604C29.0376 164.638 28.3394 164.789 27.9097 165.058C27.4849 165.321 27.2725 165.734 27.2725 166.295C27.2725 166.735 27.4043 167.069 27.668 167.299C27.9365 167.528 28.3101 167.643 28.7886 167.643ZM36.6641 168.5H35.4482V160.473H36.6641V168.5ZM35.3457 158.297C35.3457 158.019 35.4141 157.816 35.5508 157.689C35.6875 157.558 35.8584 157.492 36.0635 157.492C36.2588 157.492 36.4272 157.558 36.5688 157.689C36.7104 157.821 36.7812 158.024 36.7812 158.297C36.7812 158.571 36.7104 158.776 36.5688 158.913C36.4272 159.044 36.2588 159.11 36.0635 159.11C35.8584 159.11 35.6875 159.044 35.5508 158.913C35.4141 158.776 35.3457 158.571 35.3457 158.297ZM40.958 168.5H39.7422V157.104H40.958V168.5Z" fill="white"/>
<rect x="3" y="180" width="450" height="2" fill="white"/>
<path d="M8.21094 234.5L4.57812 225.008H4.51953C4.58789 225.76 4.62207 226.653 4.62207 227.688V234.5H3.47217V223.792H5.34717L8.73828 232.625H8.79688L12.2173 223.792H14.0776V234.5H12.8325V227.601C12.8325 226.81 12.8667 225.95 12.9351 225.022H12.8765L9.21436 234.5H8.21094ZM20.73 234.646C19.5435 234.646 18.606 234.285 17.9175 233.562C17.2339 232.84 16.8921 231.836 16.8921 230.552C16.8921 229.258 17.2095 228.23 17.8442 227.469C18.4839 226.707 19.3408 226.326 20.415 226.326C21.4209 226.326 22.2168 226.658 22.8027 227.322C23.3887 227.981 23.6816 228.853 23.6816 229.937V230.706H18.1519C18.1763 231.648 18.4131 232.364 18.8623 232.852C19.3164 233.34 19.9536 233.584 20.7739 233.584C21.6382 233.584 22.4927 233.404 23.3374 233.042V234.126C22.9077 234.312 22.5 234.444 22.1143 234.522C21.7334 234.605 21.272 234.646 20.73 234.646ZM20.4004 227.344C19.7559 227.344 19.2407 227.554 18.855 227.974C18.4741 228.394 18.2495 228.975 18.1812 229.717H22.3779C22.3779 228.951 22.207 228.365 21.8652 227.959C21.5234 227.549 21.0352 227.344 20.4004 227.344ZM31.4399 232.31C31.4399 233.057 31.1616 233.633 30.605 234.039C30.0483 234.444 29.2671 234.646 28.2612 234.646C27.1968 234.646 26.3667 234.478 25.771 234.141V233.013C26.1567 233.208 26.5693 233.362 27.0088 233.475C27.4531 233.587 27.8804 233.643 28.2905 233.643C28.9253 233.643 29.4136 233.543 29.7554 233.343C30.0972 233.138 30.2681 232.828 30.2681 232.413C30.2681 232.1 30.1313 231.834 29.8579 231.614C29.5894 231.39 29.062 231.126 28.2759 230.823C27.5288 230.545 26.9966 230.303 26.6792 230.098C26.3667 229.888 26.1323 229.651 25.9761 229.388C25.8247 229.124 25.749 228.809 25.749 228.443C25.749 227.789 26.0151 227.273 26.5474 226.897C27.0796 226.517 27.8096 226.326 28.7373 226.326C29.6016 226.326 30.4463 226.502 31.2715 226.854L30.8394 227.842C30.0337 227.51 29.3037 227.344 28.6494 227.344C28.0732 227.344 27.6387 227.435 27.3457 227.615C27.0527 227.796 26.9062 228.045 26.9062 228.362C26.9062 228.577 26.96 228.76 27.0674 228.912C27.1797 229.063 27.3579 229.207 27.6021 229.344C27.8462 229.48 28.3149 229.678 29.0083 229.937C29.9604 230.284 30.6025 230.633 30.9346 230.984C31.2715 231.336 31.4399 231.778 31.4399 232.31ZM39.103 232.31C39.103 233.057 38.8247 233.633 38.2681 234.039C37.7114 234.444 36.9302 234.646 35.9243 234.646C34.8599 234.646 34.0298 234.478 33.4341 234.141V233.013C33.8198 233.208 34.2324 233.362 34.6719 233.475C35.1162 233.587 35.5435 233.643 35.9536 233.643C36.5884 233.643 37.0767 233.543 37.4185 233.343C37.7603 233.138 37.9312 232.828 37.9312 232.413C37.9312 232.1 37.7944 231.834 37.521 231.614C37.2524 231.39 36.7251 231.126 35.939 230.823C35.1919 230.545 34.6597 230.303 34.3423 230.098C34.0298 229.888 33.7954 229.651 33.6392 229.388C33.4878 229.124 33.4121 228.809 33.4121 228.443C33.4121 227.789 33.6782 227.273 34.2104 226.897C34.7427 226.517 35.4727 226.326 36.4004 226.326C37.2646 226.326 38.1094 226.502 38.9346 226.854L38.5024 227.842C37.6968 227.51 36.9668 227.344 36.3125 227.344C35.7363 227.344 35.3018 227.435 35.0088 227.615C34.7158 227.796 34.5693 228.045 34.5693 228.362C34.5693 228.577 34.623 228.76 34.7305 228.912C34.8428 229.063 35.021 229.207 35.2651 229.344C35.5093 229.48 35.978 229.678 36.6714 229.937C37.6235 230.284 38.2656 230.633 38.5977 230.984C38.9346 231.336 39.103 231.778 39.103 232.31ZM46.5244 234.5L46.2827 233.357H46.2241C45.8237 233.86 45.4233 234.202 45.0229 234.383C44.6274 234.559 44.1318 234.646 43.5361 234.646C42.7402 234.646 42.1152 234.441 41.6611 234.031C41.2119 233.621 40.9873 233.038 40.9873 232.281C40.9873 230.66 42.2837 229.81 44.8765 229.732L46.2388 229.688V229.19C46.2388 228.56 46.1021 228.096 45.8286 227.798C45.5601 227.496 45.1279 227.344 44.5322 227.344C43.8633 227.344 43.1064 227.549 42.2617 227.959L41.8882 227.029C42.2837 226.814 42.7158 226.646 43.1846 226.524C43.6582 226.402 44.1318 226.341 44.6055 226.341C45.5625 226.341 46.2705 226.553 46.7295 226.978C47.1934 227.403 47.4253 228.084 47.4253 229.021V234.5H46.5244ZM43.7778 233.643C44.5347 233.643 45.1279 233.436 45.5576 233.021C45.9922 232.605 46.2095 232.024 46.2095 231.277V230.552L44.9937 230.604C44.0269 230.638 43.3286 230.789 42.8989 231.058C42.4741 231.321 42.2617 231.734 42.2617 232.295C42.2617 232.735 42.3936 233.069 42.6572 233.299C42.9258 233.528 43.2993 233.643 43.7778 233.643ZM57.0073 226.473V227.242L55.5205 227.417C55.6572 227.588 55.7793 227.813 55.8867 228.091C55.9941 228.365 56.0479 228.675 56.0479 229.021C56.0479 229.808 55.7793 230.435 55.2422 230.904C54.7051 231.373 53.9678 231.607 53.0303 231.607C52.791 231.607 52.5664 231.587 52.3564 231.548C51.8389 231.822 51.5801 232.166 51.5801 232.581C51.5801 232.801 51.6704 232.964 51.8511 233.072C52.0317 233.174 52.3418 233.226 52.7812 233.226H54.2021C55.0713 233.226 55.7378 233.409 56.2017 233.775C56.6704 234.141 56.9048 234.673 56.9048 235.372C56.9048 236.26 56.5483 236.937 55.8354 237.4C55.1226 237.869 54.0825 238.104 52.7153 238.104C51.6655 238.104 50.855 237.908 50.2837 237.518C49.7173 237.127 49.4341 236.575 49.4341 235.862C49.4341 235.374 49.5903 234.952 49.9028 234.595C50.2153 234.239 50.6548 233.997 51.2212 233.87C51.0161 233.777 50.8428 233.633 50.7012 233.438C50.5645 233.243 50.4961 233.016 50.4961 232.757C50.4961 232.464 50.5742 232.208 50.7305 231.988C50.8867 231.768 51.1333 231.556 51.4702 231.351C51.0552 231.18 50.7158 230.889 50.4521 230.479C50.1934 230.069 50.064 229.6 50.064 229.073C50.064 228.194 50.3276 227.518 50.855 227.044C51.3823 226.565 52.1294 226.326 53.0962 226.326C53.5161 226.326 53.8945 226.375 54.2314 226.473H57.0073ZM50.606 235.848C50.606 236.282 50.7891 236.612 51.1553 236.836C51.5215 237.061 52.0464 237.173 52.73 237.173C53.7505 237.173 54.5049 237.02 54.9932 236.712C55.4863 236.409 55.7329 235.997 55.7329 235.474C55.7329 235.04 55.5986 234.737 55.3301 234.566C55.0615 234.4 54.5562 234.317 53.814 234.317H52.3564C51.8047 234.317 51.375 234.449 51.0674 234.712C50.7598 234.976 50.606 235.354 50.606 235.848ZM51.2651 229.043C51.2651 229.605 51.4238 230.03 51.7412 230.318C52.0586 230.606 52.5005 230.75 53.0669 230.75C54.2534 230.75 54.8467 230.174 54.8467 229.021C54.8467 227.815 54.2461 227.212 53.0449 227.212C52.4736 227.212 52.0342 227.366 51.7266 227.674C51.4189 227.981 51.2651 228.438 51.2651 229.043ZM62.5464 234.646C61.3599 234.646 60.4224 234.285 59.7339 233.562C59.0503 232.84 58.7085 231.836 58.7085 230.552C58.7085 229.258 59.0259 228.23 59.6606 227.469C60.3003 226.707 61.1572 226.326 62.2314 226.326C63.2373 226.326 64.0332 226.658 64.6191 227.322C65.2051 227.981 65.498 228.853 65.498 229.937V230.706H59.9683C59.9927 231.648 60.2295 232.364 60.6787 232.852C61.1328 233.34 61.77 233.584 62.5903 233.584C63.4546 233.584 64.3091 233.404 65.1538 233.042V234.126C64.7241 234.312 64.3164 234.444 63.9307 234.522C63.5498 234.605 63.0884 234.646 62.5464 234.646ZM62.2168 227.344C61.5723 227.344 61.0571 227.554 60.6714 227.974C60.2905 228.394 60.0659 228.975 59.9976 229.717H64.1943C64.1943 228.951 64.0234 228.365 63.6816 227.959C63.3398 227.549 62.8516 227.344 62.2168 227.344Z" fill="white"/>
<rect x="3" y="405" width="450" height="2" fill="white"/>
<g clip-path="url(#clip1)">
<rect x="283" y="339.5" width="170" height="50" rx="25" fill="#C71222"/>
<path d="M335.057 357.751C333.88 357.751 332.95 358.145 332.267 358.931C331.588 359.712 331.249 360.784 331.249 362.146C331.249 363.547 331.576 364.631 332.23 365.398C332.889 366.16 333.827 366.541 335.042 366.541C335.79 366.541 336.642 366.406 337.599 366.138V367.229C336.856 367.507 335.941 367.646 334.852 367.646C333.275 367.646 332.057 367.168 331.197 366.211C330.343 365.254 329.916 363.894 329.916 362.131C329.916 361.028 330.121 360.061 330.531 359.231C330.946 358.401 331.542 357.761 332.318 357.312C333.099 356.863 334.017 356.638 335.072 356.638C336.195 356.638 337.176 356.843 338.016 357.253L337.489 358.323C336.678 357.942 335.868 357.751 335.057 357.751ZM346.868 363.479C346.868 364.788 346.539 365.811 345.879 366.548C345.22 367.28 344.31 367.646 343.147 367.646C342.43 367.646 341.792 367.478 341.236 367.141C340.679 366.804 340.25 366.321 339.947 365.691C339.644 365.061 339.493 364.324 339.493 363.479C339.493 362.17 339.82 361.152 340.474 360.425C341.128 359.692 342.037 359.326 343.199 359.326C344.322 359.326 345.213 359.7 345.872 360.447C346.536 361.194 346.868 362.205 346.868 363.479ZM340.752 363.479C340.752 364.504 340.958 365.286 341.368 365.823C341.778 366.36 342.381 366.628 343.177 366.628C343.973 366.628 344.576 366.362 344.986 365.83C345.401 365.293 345.608 364.509 345.608 363.479C345.608 362.458 345.401 361.685 344.986 361.157C344.576 360.625 343.968 360.359 343.162 360.359C342.366 360.359 341.766 360.62 341.36 361.143C340.955 361.665 340.752 362.444 340.752 363.479ZM354.688 367.5V362.307C354.688 361.653 354.539 361.165 354.241 360.842C353.943 360.52 353.477 360.359 352.842 360.359C352.002 360.359 351.387 360.586 350.996 361.04C350.605 361.494 350.41 362.244 350.41 363.289V367.5H349.194V359.473H350.183L350.381 360.571H350.439C350.688 360.176 351.038 359.871 351.487 359.656C351.936 359.436 352.437 359.326 352.988 359.326C353.955 359.326 354.683 359.561 355.171 360.029C355.659 360.493 355.903 361.238 355.903 362.263V367.5H354.688ZM361.188 366.643C361.403 366.643 361.611 366.628 361.811 366.599C362.011 366.565 362.17 366.531 362.287 366.497V367.427C362.155 367.49 361.96 367.542 361.701 367.581C361.447 367.625 361.218 367.646 361.013 367.646C359.46 367.646 358.684 366.829 358.684 365.193V360.417H357.534V359.832L358.684 359.326L359.196 357.612H359.899V359.473H362.229V360.417H359.899V365.142C359.899 365.625 360.014 365.996 360.244 366.255C360.473 366.514 360.788 366.643 361.188 366.643ZM369.022 367.5L368.781 366.357H368.722C368.322 366.86 367.921 367.202 367.521 367.383C367.125 367.559 366.63 367.646 366.034 367.646C365.238 367.646 364.613 367.441 364.159 367.031C363.71 366.621 363.485 366.038 363.485 365.281C363.485 363.66 364.782 362.81 367.375 362.732L368.737 362.688V362.19C368.737 361.56 368.6 361.096 368.327 360.798C368.058 360.496 367.626 360.344 367.03 360.344C366.361 360.344 365.604 360.549 364.76 360.959L364.386 360.029C364.782 359.814 365.214 359.646 365.683 359.524C366.156 359.402 366.63 359.341 367.104 359.341C368.061 359.341 368.769 359.553 369.228 359.978C369.691 360.403 369.923 361.084 369.923 362.021V367.5H369.022ZM366.276 366.643C367.033 366.643 367.626 366.436 368.056 366.021C368.49 365.605 368.708 365.024 368.708 364.277V363.552L367.492 363.604C366.525 363.638 365.827 363.789 365.397 364.058C364.972 364.321 364.76 364.734 364.76 365.295C364.76 365.735 364.892 366.069 365.155 366.299C365.424 366.528 365.797 366.643 366.276 366.643ZM375.831 367.646C374.669 367.646 373.768 367.29 373.128 366.577C372.494 365.859 372.176 364.846 372.176 363.538C372.176 362.195 372.499 361.157 373.143 360.425C373.792 359.692 374.715 359.326 375.912 359.326C376.297 359.326 376.683 359.368 377.069 359.451C377.455 359.534 377.757 359.631 377.977 359.744L377.604 360.776C377.335 360.669 377.042 360.581 376.725 360.513C376.407 360.439 376.126 360.403 375.882 360.403C374.251 360.403 373.436 361.443 373.436 363.523C373.436 364.509 373.634 365.266 374.029 365.793C374.43 366.321 375.021 366.584 375.802 366.584C376.471 366.584 377.157 366.44 377.86 366.152V367.229C377.323 367.507 376.646 367.646 375.831 367.646ZM382.552 366.643C382.767 366.643 382.974 366.628 383.174 366.599C383.375 366.565 383.533 366.531 383.65 366.497V367.427C383.519 367.49 383.323 367.542 383.064 367.581C382.811 367.625 382.581 367.646 382.376 367.646C380.823 367.646 380.047 366.829 380.047 365.193V360.417H378.897V359.832L380.047 359.326L380.56 357.612H381.263V359.473H383.592V360.417H381.263V365.142C381.263 365.625 381.377 365.996 381.607 366.255C381.836 366.514 382.151 366.643 382.552 366.643ZM397.802 356.792V363.721C397.802 364.941 397.434 365.901 396.696 366.599C395.959 367.297 394.946 367.646 393.657 367.646C392.368 367.646 391.369 367.295 390.661 366.592C389.958 365.889 389.606 364.922 389.606 363.691V356.792H390.852V363.779C390.852 364.673 391.096 365.359 391.584 365.837C392.072 366.316 392.79 366.555 393.737 366.555C394.641 366.555 395.336 366.316 395.825 365.837C396.313 365.354 396.557 364.663 396.557 363.765V356.792H397.802ZM405.827 365.31C405.827 366.057 405.548 366.633 404.992 367.039C404.435 367.444 403.654 367.646 402.648 367.646C401.583 367.646 400.753 367.478 400.158 367.141V366.013C400.543 366.208 400.956 366.362 401.396 366.475C401.84 366.587 402.267 366.643 402.677 366.643C403.312 366.643 403.8 366.543 404.142 366.343C404.484 366.138 404.655 365.828 404.655 365.413C404.655 365.1 404.518 364.834 404.245 364.614C403.976 364.39 403.449 364.126 402.663 363.823C401.916 363.545 401.383 363.303 401.066 363.098C400.753 362.888 400.519 362.651 400.363 362.388C400.211 362.124 400.136 361.809 400.136 361.443C400.136 360.789 400.402 360.273 400.934 359.897C401.466 359.517 402.196 359.326 403.124 359.326C403.988 359.326 404.833 359.502 405.658 359.854L405.226 360.842C404.42 360.51 403.69 360.344 403.036 360.344C402.46 360.344 402.025 360.435 401.732 360.615C401.439 360.796 401.293 361.045 401.293 361.362C401.293 361.577 401.347 361.76 401.454 361.912C401.566 362.063 401.745 362.207 401.989 362.344C402.233 362.48 402.702 362.678 403.395 362.937C404.347 363.284 404.989 363.633 405.321 363.984C405.658 364.336 405.827 364.778 405.827 365.31Z" fill="white"/>
</g>
</g>
<defs>
<clipPath id="clip0">
<rect width="502" height="407" fill="white" transform="translate(0 0.5)"/>
</clipPath>
<clipPath id="clip1">
<rect width="170" height="50" fill="white" transform="translate(283 339.5)"/>
</clipPath>
</defs>
</svg>
