<svg width="40" height="618" viewBox="0 0 40 618" fill="none" xmlns="http://www.w3.org/2000/svg">
<path fill-rule="evenodd" clip-rule="evenodd" d="M28.8574 582.008H11.1412C10.1449 582.008 9.33618 582.816 9.33618 583.813V616.189C9.33618 617.186 10.1449 617.994 11.1412 617.994H28.8574C29.8537 617.994 30.6624 617.186 30.6624 616.189V583.813C30.6624 582.816 29.8537 582.008 28.8574 582.008ZM29.3299 616.189C29.3299 616.449 29.1187 616.66 28.8587 616.66H11.1424C10.8824 616.66 10.6712 616.449 10.6712 616.189V610.001H29.3312V616.189H29.3299ZM29.3299 608.668H10.6699V587.365H29.3299V608.668ZM29.3299 586.033H10.6699V583.813C10.6699 583.553 10.8812 583.34 11.1412 583.34H28.8574C29.1174 583.34 29.3287 583.553 29.3287 583.813V586.033H29.3299Z" fill="#C71222"/>
<path fill-rule="evenodd" clip-rule="evenodd" d="M18.0012 612.661H22V613.994H18.0012V612.661H18.0012Z" fill="#EE1A21"/>
</svg>
