<svg width="29" height="620" viewBox="0 0 29 620" fill="none" xmlns="http://www.w3.org/2000/svg">
<g clip-path="url(#clip0)">
<path fill-rule="evenodd" clip-rule="evenodd" d="M14.4642 589C12.365 589 10.7142 590.539 10.7142 592.5C10.7142 594.461 12.3636 596 14.4642 596C16.5635 596 18.2142 594.461 18.2142 592.5C18.2142 590.539 16.5649 589 14.4642 589ZM13.9285 594C12.7138 594 11.7857 593.134 11.7857 592C11.7857 590.866 12.7138 590 13.9285 590C15.1433 590 16.0714 590.866 16.0714 592C16.0714 593.134 15.1433 594 13.9285 594Z" fill="#C71222"/>
<path fill-rule="evenodd" clip-rule="evenodd" d="M21.6954 603.667C21.6954 598.867 21.6954 593.401 21.6954 591.4C21.6954 587.667 19.0199 582.6 14.4636 580C9.90729 582.6 7.2318 587.667 7.2318 591.467C7.2318 593.467 7.2318 598.933 7.2318 603.733L0 612H28.9286L21.6968 603.666L21.6954 603.667ZM7.5 611H3.21429L7.5 606V611ZM20.3558 611H8.57143V591.844C8.57143 588.851 10.6333 584.527 14.4643 582C18.2939 584.528 20.3571 588.785 20.3571 591.844V611H20.3558ZM21.4286 606L25.7143 611H21.4286C21.4286 609.835 21.4286 608.055 21.4286 606Z" fill="#C71222"/>
<path fill-rule="evenodd" clip-rule="evenodd" d="M13.9286 613H15V620H13.9286V613Z" fill="#C71222"/>
<path fill-rule="evenodd" clip-rule="evenodd" d="M17.1428 613H18.2143V617H17.1428V613Z" fill="#C71222"/>
<path fill-rule="evenodd" clip-rule="evenodd" d="M10.7142 613H11.7857V617H10.7142V613H10.7142Z" fill="#C71222"/>
<rect x="1" y="238" width="471" height="14" fill="#C4C4C4"/>
</g>
<defs>
<clipPath id="clip0">
<rect width="29" height="620" fill="white"/>
</clipPath>
</defs>
</svg>
