<svg width="185" height="22" viewBox="0 0 185 22" fill="none" xmlns="http://www.w3.org/2000/svg">
<path d="M11.0139 21.168C9.07257 21.168 7.30857 20.7387 5.72191 19.88C4.15391 19.0027 2.92191 17.808 2.02591 16.296C1.14857 14.784 0.709906 13.0853 0.709906 11.2C0.709906 9.31467 1.14857 7.616 2.02591 6.104C2.92191 4.592 4.15391 3.40667 5.72191 2.548C7.30857 1.67067 9.07257 1.232 11.0139 1.232C12.9552 1.232 14.7006 1.66133 16.2499 2.52C17.8179 3.37867 19.0499 4.57333 19.9459 6.104C20.8419 7.616 21.2899 9.31467 21.2899 11.2C21.2899 13.0853 20.8419 14.7933 19.9459 16.324C19.0499 17.836 17.8179 19.0213 16.2499 19.88C14.7006 20.7387 12.9552 21.168 11.0139 21.168ZM11.0139 19.32C12.5632 19.32 13.9632 18.9747 15.2139 18.284C16.4646 17.5747 17.4446 16.604 18.1539 15.372C18.8632 14.1213 19.2179 12.7307 19.2179 11.2C19.2179 9.66933 18.8632 8.288 18.1539 7.056C17.4446 5.80533 16.4646 4.83467 15.2139 4.144C13.9632 3.43467 12.5632 3.08 11.0139 3.08C9.46457 3.08 8.05524 3.43467 6.78591 4.144C5.53524 4.83467 4.54591 5.80533 3.81791 7.056C3.10857 8.288 2.75391 9.66933 2.75391 11.2C2.75391 12.7307 3.10857 14.1213 3.81791 15.372C4.54591 16.604 5.53524 17.5747 6.78591 18.284C8.05524 18.9747 9.46457 19.32 11.0139 19.32ZM39.7862 6.272V21H37.8822V18.312C37.3595 19.208 36.6409 19.908 35.7262 20.412C34.8115 20.8973 33.7662 21.14 32.5902 21.14C30.6675 21.14 29.1462 20.608 28.0262 19.544C26.9249 18.4613 26.3742 16.884 26.3742 14.812V6.272H28.3622V14.616C28.3622 16.1653 28.7449 17.3413 29.5102 18.144C30.2755 18.9467 31.3675 19.348 32.7862 19.348C34.3355 19.348 35.5582 18.8813 36.4542 17.948C37.3502 16.996 37.7982 15.68 37.7982 14V6.272H39.7862ZM48.258 9.156C48.7247 8.16667 49.4154 7.42 50.33 6.916C51.2634 6.412 52.4114 6.16 53.774 6.16V8.092L53.298 8.064C51.7487 8.064 50.5354 8.54 49.658 9.492C48.7807 10.444 48.342 11.7787 48.342 13.496V21H46.354V6.272H48.258V9.156ZM72.7444 21.168C71.2884 21.168 69.8884 20.9347 68.5444 20.468C67.2191 20.0013 66.1924 19.3853 65.4644 18.62L66.2764 17.024C66.9858 17.7333 67.9284 18.312 69.1044 18.76C70.2804 19.1893 71.4938 19.404 72.7444 19.404C74.4991 19.404 75.8151 19.0867 76.6924 18.452C77.5698 17.7987 78.0084 16.9587 78.0084 15.932C78.0084 15.148 77.7658 14.5227 77.2804 14.056C76.8138 13.5893 76.2351 13.2347 75.5444 12.992C74.8538 12.7307 73.8924 12.4507 72.6604 12.152C71.1858 11.7787 70.0098 11.424 69.1324 11.088C68.2551 10.7333 67.4991 10.2013 66.8644 9.492C66.2484 8.78267 65.9404 7.82133 65.9404 6.608C65.9404 5.61867 66.2018 4.72267 66.7244 3.92C67.2471 3.09867 68.0498 2.44533 69.1324 1.96C70.2151 1.47467 71.5591 1.232 73.1644 1.232C74.2844 1.232 75.3764 1.39067 76.4404 1.708C77.5231 2.00667 78.4564 2.42667 79.2404 2.968L78.5404 4.62C77.7191 4.07867 76.8418 3.67733 75.9084 3.416C74.9751 3.136 74.0604 2.996 73.1644 2.996C71.4471 2.996 70.1498 3.332 69.2724 4.004C68.4138 4.65733 67.9844 5.50667 67.9844 6.552C67.9844 7.336 68.2178 7.97067 68.6844 8.456C69.1698 8.92267 69.7671 9.28667 70.4764 9.548C71.2044 9.79067 72.1751 10.0613 73.3884 10.36C74.8258 10.7147 75.9831 11.0693 76.8604 11.424C77.7564 11.76 78.5124 12.2827 79.1284 12.992C79.7444 13.6827 80.0524 14.6253 80.0524 15.82C80.0524 16.8093 79.7818 17.7147 79.2404 18.536C78.7178 19.3387 77.9058 19.9827 76.8044 20.468C75.7031 20.9347 74.3498 21.168 72.7444 21.168ZM97.971 14.252H85.651C85.763 15.7827 86.351 17.024 87.415 17.976C88.479 18.9093 89.823 19.376 91.447 19.376C92.3617 19.376 93.2017 19.2173 93.967 18.9C94.7323 18.564 95.395 18.0787 95.955 17.444L97.075 18.732C96.4217 19.516 95.6003 20.1133 94.611 20.524C93.6403 20.9347 92.567 21.14 91.391 21.14C89.879 21.14 88.535 20.8227 87.359 20.188C86.2017 19.5347 85.2963 18.6387 84.643 17.5C83.9897 16.3613 83.663 15.0733 83.663 13.636C83.663 12.1987 83.971 10.9107 84.587 9.772C85.2217 8.63333 86.0803 7.74667 87.163 7.112C88.2643 6.47733 89.4963 6.16 90.859 6.16C92.2217 6.16 93.4443 6.47733 94.527 7.112C95.6097 7.74667 96.459 8.63333 97.075 9.772C97.691 10.892 97.999 12.18 97.999 13.636L97.971 14.252ZM90.859 7.868C89.4403 7.868 88.2457 8.32533 87.275 9.24C86.323 10.136 85.7817 11.312 85.651 12.768H96.095C95.9643 11.312 95.4137 10.136 94.443 9.24C93.491 8.32533 92.2963 7.868 90.859 7.868ZM104.949 9.156C105.416 8.16667 106.107 7.42 107.021 6.916C107.955 6.412 109.103 6.16 110.465 6.16V8.092L109.989 8.064C108.44 8.064 107.227 8.54 106.349 9.492C105.472 10.444 105.033 11.7787 105.033 13.496V21H103.045V6.272H104.949V9.156ZM128.07 6.272L121.518 21H119.474L112.95 6.272H115.022L120.538 18.816L126.11 6.272H128.07ZM131.87 6.272H133.858V21H131.87V6.272ZM132.878 3.052C132.467 3.052 132.122 2.912 131.842 2.632C131.562 2.352 131.422 2.016 131.422 1.624C131.422 1.25067 131.562 0.923999 131.842 0.643998C132.122 0.363999 132.467 0.223999 132.878 0.223999C133.288 0.223999 133.634 0.363999 133.914 0.643998C134.194 0.905332 134.334 1.22267 134.334 1.596C134.334 2.00667 134.194 2.352 133.914 2.632C133.634 2.912 133.288 3.052 132.878 3.052ZM146.493 21.14C145.037 21.14 143.731 20.8227 142.573 20.188C141.435 19.5533 140.539 18.6667 139.885 17.528C139.232 16.3707 138.905 15.0733 138.905 13.636C138.905 12.1987 139.232 10.9107 139.885 9.772C140.539 8.63333 141.435 7.74667 142.573 7.112C143.731 6.47733 145.037 6.16 146.493 6.16C147.763 6.16 148.892 6.412 149.881 6.916C150.889 7.40133 151.683 8.12 152.261 9.072L150.777 10.08C150.292 9.352 149.676 8.81067 148.929 8.456C148.183 8.08267 147.371 7.896 146.493 7.896C145.429 7.896 144.468 8.13867 143.609 8.624C142.769 9.09067 142.107 9.76267 141.621 10.64C141.155 11.5173 140.921 12.516 140.921 13.636C140.921 14.7747 141.155 15.7827 141.621 16.66C142.107 17.5187 142.769 18.1907 143.609 18.676C144.468 19.1427 145.429 19.376 146.493 19.376C147.371 19.376 148.183 19.1987 148.929 18.844C149.676 18.4893 150.292 17.948 150.777 17.22L152.261 18.228C151.683 19.18 150.889 19.908 149.881 20.412C148.873 20.8973 147.744 21.14 146.493 21.14ZM169.744 14.252H157.424C157.536 15.7827 158.124 17.024 159.188 17.976C160.252 18.9093 161.596 19.376 163.22 19.376C164.135 19.376 164.975 19.2173 165.74 18.9C166.506 18.564 167.168 18.0787 167.728 17.444L168.848 18.732C168.195 19.516 167.374 20.1133 166.384 20.524C165.414 20.9347 164.34 21.14 163.164 21.14C161.652 21.14 160.308 20.8227 159.132 20.188C157.975 19.5347 157.07 18.6387 156.416 17.5C155.763 16.3613 155.436 15.0733 155.436 13.636C155.436 12.1987 155.744 10.9107 156.36 9.772C156.995 8.63333 157.854 7.74667 158.936 7.112C160.038 6.47733 161.27 6.16 162.632 6.16C163.995 6.16 165.218 6.47733 166.3 7.112C167.383 7.74667 168.232 8.63333 168.848 9.772C169.464 10.892 169.772 12.18 169.772 13.636L169.744 14.252ZM162.632 7.868C161.214 7.868 160.019 8.32533 159.048 9.24C158.096 10.136 157.555 11.312 157.424 12.768H167.868C167.738 11.312 167.187 10.136 166.216 9.24C165.264 8.32533 164.07 7.868 162.632 7.868ZM178.767 21.14C177.572 21.14 176.424 20.972 175.323 20.636C174.24 20.2813 173.391 19.8427 172.775 19.32L173.671 17.752C174.287 18.2373 175.062 18.6387 175.995 18.956C176.928 19.2547 177.899 19.404 178.907 19.404C180.251 19.404 181.24 19.1987 181.875 18.788C182.528 18.3587 182.855 17.7613 182.855 16.996C182.855 16.4547 182.678 16.0347 182.323 15.736C181.968 15.4187 181.52 15.1853 180.979 15.036C180.438 14.868 179.719 14.7093 178.823 14.56C177.628 14.336 176.667 14.112 175.939 13.888C175.211 13.6453 174.586 13.244 174.063 12.684C173.559 12.124 173.307 11.3493 173.307 10.36C173.307 9.128 173.82 8.12 174.847 7.336C175.874 6.552 177.302 6.16 179.131 6.16C180.083 6.16 181.035 6.29067 181.987 6.552C182.939 6.79467 183.723 7.12133 184.339 7.532L183.471 9.128C182.258 8.288 180.811 7.868 179.131 7.868C177.862 7.868 176.9 8.092 176.247 8.54C175.612 8.988 175.295 9.576 175.295 10.304C175.295 10.864 175.472 11.312 175.827 11.648C176.2 11.984 176.658 12.236 177.199 12.404C177.74 12.5533 178.487 12.712 179.439 12.88C180.615 13.104 181.558 13.328 182.267 13.552C182.976 13.776 183.583 14.1587 184.087 14.7C184.591 15.2413 184.843 15.988 184.843 16.94C184.843 18.228 184.302 19.2547 183.219 20.02C182.155 20.7667 180.671 21.14 178.767 21.14Z" fill="#2B2B2B"/>
</svg>
