<svg width="262" height="80" viewBox="0 0 262 80" fill="none" xmlns="http://www.w3.org/2000/svg">
<path fill-rule="evenodd" clip-rule="evenodd" d="M1 17H262V80C262 80 21.0983 80 13.5073 80C5.91632 80 1 80 1 80V17Z" fill="#C71222"/>
<path fill-rule="evenodd" clip-rule="evenodd" d="M0.96582 17H27.0828L0.96582 0.241699V17Z" fill="#C71222"/>
<path d="M19.6533 33.9014C18.555 33.9014 17.6868 34.2682 17.0488 35.002C16.4154 35.7311 16.0986 36.7314 16.0986 38.0029C16.0986 39.3109 16.404 40.3226 17.0146 41.0381C17.6299 41.749 18.5049 42.1045 19.6396 42.1045C20.3369 42.1045 21.1322 41.9792 22.0254 41.7285V42.7471C21.3327 43.0068 20.4782 43.1367 19.4619 43.1367C17.9899 43.1367 16.8529 42.6901 16.0508 41.7969C15.2533 40.9036 14.8545 39.6344 14.8545 37.9893C14.8545 36.9593 15.0459 36.057 15.4287 35.2822C15.8161 34.5075 16.3721 33.9105 17.0967 33.4912C17.8258 33.0719 18.6826 32.8623 19.667 32.8623C20.7152 32.8623 21.6312 33.0537 22.415 33.4365L21.9229 34.4346C21.1663 34.0791 20.4098 33.9014 19.6533 33.9014ZM30.502 39.2471C30.502 40.4684 30.1943 41.4232 29.5791 42.1113C28.9639 42.7949 28.1139 43.1367 27.0293 43.1367C26.3594 43.1367 25.7646 42.9795 25.2451 42.665C24.7256 42.3506 24.3245 41.8994 24.042 41.3115C23.7594 40.7236 23.6182 40.0355 23.6182 39.2471C23.6182 38.0257 23.9235 37.0755 24.5342 36.3965C25.1449 35.7129 25.9925 35.3711 27.0771 35.3711C28.1253 35.3711 28.957 35.7197 29.5723 36.417C30.1921 37.1143 30.502 38.0576 30.502 39.2471ZM24.7939 39.2471C24.7939 40.2041 24.9854 40.9333 25.3682 41.4346C25.751 41.9359 26.3138 42.1865 27.0566 42.1865C27.7995 42.1865 28.3623 41.9382 28.7451 41.4414C29.1325 40.9401 29.3262 40.2087 29.3262 39.2471C29.3262 38.2946 29.1325 37.5723 28.7451 37.0801C28.3623 36.5833 27.7949 36.335 27.043 36.335C26.3001 36.335 25.7396 36.5788 25.3613 37.0664C24.9831 37.554 24.7939 38.2809 24.7939 39.2471ZM42.0479 43V38.126C42.0479 37.529 41.9202 37.0824 41.665 36.7861C41.4098 36.4854 41.0133 36.335 40.4756 36.335C39.7692 36.335 39.2474 36.5378 38.9102 36.9434C38.5729 37.349 38.4043 37.9733 38.4043 38.8164V43H37.2695V38.126C37.2695 37.529 37.1419 37.0824 36.8867 36.7861C36.6315 36.4854 36.2327 36.335 35.6904 36.335C34.9795 36.335 34.4577 36.5492 34.125 36.9775C33.7969 37.4014 33.6328 38.0986 33.6328 39.0693V43H32.498V35.5078H33.4209L33.6055 36.5332H33.6602C33.8743 36.1686 34.1751 35.8838 34.5625 35.6787C34.9544 35.4736 35.3919 35.3711 35.875 35.3711C37.0462 35.3711 37.8118 35.7949 38.1719 36.6426H38.2266C38.4499 36.2507 38.7734 35.9408 39.1973 35.7129C39.6211 35.485 40.1042 35.3711 40.6465 35.3711C41.4941 35.3711 42.1276 35.5898 42.5469 36.0273C42.9707 36.4603 43.1826 37.1553 43.1826 38.1123V43H42.0479ZM49.0137 43.1367C48.526 43.1367 48.0794 43.0479 47.6738 42.8701C47.2728 42.6878 46.9355 42.4098 46.6621 42.0361H46.5801C46.6348 42.4736 46.6621 42.8883 46.6621 43.2803V46.3633H45.5273V35.5078H46.4502L46.6074 36.5332H46.6621C46.9538 36.123 47.2933 35.8268 47.6807 35.6445C48.068 35.4622 48.5124 35.3711 49.0137 35.3711C50.0072 35.3711 50.7728 35.7106 51.3105 36.3896C51.8529 37.0687 52.124 38.0212 52.124 39.2471C52.124 40.4775 51.8483 41.4346 51.2969 42.1182C50.75 42.7972 49.9889 43.1367 49.0137 43.1367ZM48.8496 36.335C48.084 36.335 47.5303 36.5469 47.1885 36.9707C46.8467 37.3945 46.6712 38.069 46.6621 38.9941V39.2471C46.6621 40.2998 46.8376 41.054 47.1885 41.5098C47.5394 41.9609 48.1022 42.1865 48.877 42.1865C49.5241 42.1865 50.0299 41.9245 50.3945 41.4004C50.7637 40.8763 50.9482 40.154 50.9482 39.2334C50.9482 38.2992 50.7637 37.5837 50.3945 37.0869C50.0299 36.5856 49.515 36.335 48.8496 36.335ZM58.7207 43L58.4951 41.9336H58.4404C58.0667 42.403 57.693 42.722 57.3193 42.8906C56.9502 43.0547 56.4876 43.1367 55.9316 43.1367C55.1888 43.1367 54.6055 42.9453 54.1816 42.5625C53.7624 42.1797 53.5527 41.6351 53.5527 40.9287C53.5527 39.4157 54.7627 38.6227 57.1826 38.5498L58.4541 38.5088V38.0439C58.4541 37.4561 58.3265 37.0231 58.0713 36.7451C57.8206 36.4626 57.4173 36.3213 56.8613 36.3213C56.237 36.3213 55.5306 36.5127 54.7422 36.8955L54.3936 36.0273C54.7627 35.8268 55.166 35.6696 55.6035 35.5557C56.0456 35.4417 56.4876 35.3848 56.9297 35.3848C57.8229 35.3848 58.4837 35.583 58.9121 35.9795C59.3451 36.376 59.5615 37.0117 59.5615 37.8867V43H58.7207ZM56.1572 42.2002C56.8636 42.2002 57.4173 42.0065 57.8184 41.6191C58.224 41.2318 58.4268 40.6895 58.4268 39.9922V39.3154L57.292 39.3633C56.3896 39.3952 55.738 39.5365 55.3369 39.7871C54.9404 40.0332 54.7422 40.4183 54.7422 40.9424C54.7422 41.3525 54.8652 41.6647 55.1113 41.8789C55.362 42.0931 55.7106 42.2002 56.1572 42.2002ZM67.0332 43V38.1533C67.0332 37.5426 66.8942 37.0869 66.6162 36.7861C66.3382 36.4854 65.903 36.335 65.3105 36.335C64.5267 36.335 63.9525 36.5469 63.5879 36.9707C63.2233 37.3945 63.041 38.0941 63.041 39.0693V43H61.9062V35.5078H62.8291L63.0137 36.5332H63.0684C63.3008 36.1641 63.6266 35.8792 64.0459 35.6787C64.4652 35.4736 64.9323 35.3711 65.4473 35.3711C66.3496 35.3711 67.0286 35.5898 67.4844 36.0273C67.9401 36.4603 68.168 37.1553 68.168 38.1123V43H67.0332ZM69.3164 35.5078H70.5332L72.1738 39.7803C72.5339 40.7555 72.7572 41.4596 72.8438 41.8926H72.8984C72.9577 41.6602 73.0807 41.2637 73.2676 40.7031C73.459 40.138 74.0788 38.4062 75.127 35.5078H76.3438L73.124 44.0391C72.805 44.8822 72.4313 45.4792 72.0029 45.8301C71.5791 46.1855 71.0573 46.3633 70.4375 46.3633C70.0911 46.3633 69.7493 46.3245 69.4121 46.2471V45.3379C69.6628 45.3926 69.943 45.4199 70.2529 45.4199C71.0322 45.4199 71.5882 44.9824 71.9209 44.1074L72.3379 43.041L69.3164 35.5078ZM89.1748 43H87.8486L82.3867 34.6123H82.332C82.4049 35.5967 82.4414 36.499 82.4414 37.3193V43H81.3682V33.0059H82.6807L88.1289 41.3594H88.1836C88.1745 41.2363 88.154 40.8421 88.1221 40.1768C88.0902 39.5068 88.0788 39.0283 88.0879 38.7412V33.0059H89.1748V43ZM96.3594 43L96.1338 41.9336H96.0791C95.7054 42.403 95.3317 42.722 94.958 42.8906C94.5889 43.0547 94.1263 43.1367 93.5703 43.1367C92.8275 43.1367 92.2441 42.9453 91.8203 42.5625C91.401 42.1797 91.1914 41.6351 91.1914 40.9287C91.1914 39.4157 92.4014 38.6227 94.8213 38.5498L96.0928 38.5088V38.0439C96.0928 37.4561 95.9652 37.0231 95.71 36.7451C95.4593 36.4626 95.056 36.3213 94.5 36.3213C93.8757 36.3213 93.1693 36.5127 92.3809 36.8955L92.0322 36.0273C92.4014 35.8268 92.8047 35.6696 93.2422 35.5557C93.6842 35.4417 94.1263 35.3848 94.5684 35.3848C95.4616 35.3848 96.1224 35.583 96.5508 35.9795C96.9837 36.376 97.2002 37.0117 97.2002 37.8867V43H96.3594ZM93.7959 42.2002C94.5023 42.2002 95.056 42.0065 95.457 41.6191C95.8626 41.2318 96.0654 40.6895 96.0654 39.9922V39.3154L94.9307 39.3633C94.0283 39.3952 93.3766 39.5365 92.9756 39.7871C92.5791 40.0332 92.3809 40.4183 92.3809 40.9424C92.3809 41.3525 92.5039 41.6647 92.75 41.8789C93.0007 42.0931 93.3493 42.2002 93.7959 42.2002ZM109.095 43V38.126C109.095 37.529 108.967 37.0824 108.712 36.7861C108.457 36.4854 108.06 36.335 107.522 36.335C106.816 36.335 106.294 36.5378 105.957 36.9434C105.62 37.349 105.451 37.9733 105.451 38.8164V43H104.316V38.126C104.316 37.529 104.189 37.0824 103.934 36.7861C103.678 36.4854 103.28 36.335 102.737 36.335C102.026 36.335 101.505 36.5492 101.172 36.9775C100.844 37.4014 100.68 38.0986 100.68 39.0693V43H99.5449V35.5078H100.468L100.652 36.5332H100.707C100.921 36.1686 101.222 35.8838 101.609 35.6787C102.001 35.4736 102.439 35.3711 102.922 35.3711C104.093 35.3711 104.859 35.7949 105.219 36.6426H105.273C105.497 36.2507 105.82 35.9408 106.244 35.7129C106.668 35.485 107.151 35.3711 107.693 35.3711C108.541 35.3711 109.174 35.5898 109.594 36.0273C110.018 36.4603 110.229 37.1553 110.229 38.1123V43H109.095ZM115.739 43.1367C114.632 43.1367 113.757 42.7995 113.114 42.125C112.476 41.4505 112.157 40.514 112.157 39.3154C112.157 38.1077 112.453 37.1484 113.046 36.4375C113.643 35.7266 114.443 35.3711 115.445 35.3711C116.384 35.3711 117.127 35.681 117.674 36.3008C118.221 36.916 118.494 37.7295 118.494 38.7412V39.459H113.333C113.356 40.3385 113.577 41.0062 113.996 41.4619C114.42 41.9176 115.015 42.1455 115.78 42.1455C116.587 42.1455 117.384 41.9769 118.173 41.6396V42.6514C117.772 42.8245 117.391 42.9476 117.031 43.0205C116.676 43.098 116.245 43.1367 115.739 43.1367ZM115.432 36.3213C114.83 36.3213 114.349 36.5173 113.989 36.9092C113.634 37.3011 113.424 37.8434 113.36 38.5361H117.277C117.277 37.8206 117.118 37.2738 116.799 36.8955C116.48 36.5127 116.024 36.3213 115.432 36.3213ZM21.0137 60.3408C21.0137 61.2204 20.6947 61.9062 20.0566 62.3984C19.4186 62.8906 18.5527 63.1367 17.459 63.1367C16.2741 63.1367 15.3626 62.984 14.7246 62.6787V61.5576C15.1348 61.7308 15.5814 61.8675 16.0645 61.9678C16.5475 62.068 17.026 62.1182 17.5 62.1182C18.2747 62.1182 18.8581 61.9723 19.25 61.6807C19.6419 61.3844 19.8379 60.9743 19.8379 60.4502C19.8379 60.1038 19.7673 59.8213 19.626 59.6025C19.4893 59.3792 19.2568 59.1742 18.9287 58.9873C18.6051 58.8005 18.1107 58.5885 17.4453 58.3516C16.5156 58.0189 15.8503 57.6247 15.4492 57.1689C15.0527 56.7132 14.8545 56.1185 14.8545 55.3848C14.8545 54.6146 15.1439 54.0016 15.7227 53.5459C16.3014 53.0902 17.0671 52.8623 18.0195 52.8623C19.013 52.8623 19.9268 53.0446 20.7607 53.4092L20.3984 54.4209C19.5736 54.0745 18.7715 53.9014 17.9922 53.9014C17.377 53.9014 16.8962 54.0335 16.5498 54.2979C16.2035 54.5622 16.0303 54.929 16.0303 55.3984C16.0303 55.7448 16.0941 56.0296 16.2217 56.2529C16.3493 56.4717 16.5635 56.6745 16.8643 56.8613C17.1696 57.0436 17.6344 57.2464 18.2588 57.4697C19.307 57.8434 20.027 58.2445 20.4189 58.6729C20.8154 59.1012 21.0137 59.6572 21.0137 60.3408ZM29.3535 59.2471C29.3535 60.4684 29.0459 61.4232 28.4307 62.1113C27.8154 62.7949 26.9655 63.1367 25.8809 63.1367C25.2109 63.1367 24.6162 62.9795 24.0967 62.665C23.5771 62.3506 23.1761 61.8994 22.8936 61.3115C22.611 60.7236 22.4697 60.0355 22.4697 59.2471C22.4697 58.0257 22.7751 57.0755 23.3857 56.3965C23.9964 55.7129 24.8441 55.3711 25.9287 55.3711C26.9769 55.3711 27.8086 55.7197 28.4238 56.417C29.0436 57.1143 29.3535 58.0576 29.3535 59.2471ZM23.6455 59.2471C23.6455 60.2041 23.8369 60.9333 24.2197 61.4346C24.6025 61.9359 25.1654 62.1865 25.9082 62.1865C26.651 62.1865 27.2139 61.9382 27.5967 61.4414C27.984 60.9401 28.1777 60.2087 28.1777 59.2471C28.1777 58.2946 27.984 57.5723 27.5967 57.0801C27.2139 56.5833 26.6465 56.335 25.8945 56.335C25.1517 56.335 24.5911 56.5788 24.2129 57.0664C23.8346 57.554 23.6455 58.2809 23.6455 59.2471ZM32.416 55.5078V60.3682C32.416 60.9788 32.555 61.4346 32.833 61.7354C33.111 62.0361 33.5462 62.1865 34.1387 62.1865C34.9225 62.1865 35.4945 61.9723 35.8545 61.5439C36.2191 61.1156 36.4014 60.416 36.4014 59.4453V55.5078H37.5361V63H36.5996L36.4355 61.9951H36.374C36.1416 62.3643 35.818 62.6468 35.4033 62.8428C34.9932 63.0387 34.5238 63.1367 33.9951 63.1367C33.0837 63.1367 32.4001 62.9202 31.9443 62.4873C31.4932 62.0544 31.2676 61.3617 31.2676 60.4092V55.5078H32.416ZM42.3691 62.2002C42.5697 62.2002 42.7633 62.1865 42.9502 62.1592C43.137 62.1273 43.2852 62.0954 43.3945 62.0635V62.9316C43.2715 62.9909 43.0892 63.0387 42.8477 63.0752C42.6107 63.1162 42.3965 63.1367 42.2051 63.1367C40.7559 63.1367 40.0312 62.3734 40.0312 60.8467V56.3896H38.958V55.8428L40.0312 55.3711L40.5098 53.7715H41.166V55.5078H43.3398V56.3896H41.166V60.7988C41.166 61.25 41.2731 61.5964 41.4873 61.8379C41.7015 62.0794 41.9954 62.2002 42.3691 62.2002ZM50.0254 63V58.1533C50.0254 57.5426 49.8864 57.0869 49.6084 56.7861C49.3304 56.4854 48.8952 56.335 48.3027 56.335C47.5143 56.335 46.9378 56.5492 46.5732 56.9775C46.2132 57.4059 46.0332 58.1077 46.0332 59.083V63H44.8984V52.3633H46.0332V55.583C46.0332 55.9704 46.015 56.2917 45.9785 56.5469H46.0469C46.2702 56.1868 46.5869 55.9043 46.9971 55.6992C47.4118 55.4896 47.8835 55.3848 48.4121 55.3848C49.3281 55.3848 50.014 55.6035 50.4697 56.041C50.93 56.474 51.1602 57.1644 51.1602 58.1123V63H50.0254ZM59.6299 55.5078V56.2256L58.2422 56.3896C58.3698 56.5492 58.4837 56.7588 58.584 57.0186C58.6842 57.2738 58.7344 57.5632 58.7344 57.8867C58.7344 58.6204 58.4837 59.2061 57.9824 59.6436C57.4811 60.0811 56.793 60.2998 55.918 60.2998C55.6947 60.2998 55.485 60.2816 55.2891 60.2451C54.806 60.5003 54.5645 60.8216 54.5645 61.209C54.5645 61.4141 54.6488 61.5667 54.8174 61.667C54.986 61.7627 55.2754 61.8105 55.6855 61.8105H57.0117C57.8229 61.8105 58.445 61.9814 58.8779 62.3232C59.3154 62.665 59.5342 63.1618 59.5342 63.8135C59.5342 64.6429 59.2015 65.2741 58.5361 65.707C57.8708 66.1445 56.9001 66.3633 55.624 66.3633C54.6442 66.3633 53.8877 66.181 53.3545 65.8164C52.8258 65.4518 52.5615 64.9368 52.5615 64.2715C52.5615 63.8158 52.7074 63.4215 52.999 63.0889C53.2907 62.7562 53.7008 62.5306 54.2295 62.4121C54.0381 62.3255 53.8763 62.1911 53.7441 62.0088C53.6165 61.8265 53.5527 61.6146 53.5527 61.373C53.5527 61.0996 53.6257 60.8604 53.7715 60.6553C53.9173 60.4502 54.1475 60.252 54.4619 60.0605C54.0745 59.901 53.7578 59.6299 53.5117 59.2471C53.2702 58.8643 53.1494 58.4268 53.1494 57.9346C53.1494 57.1143 53.3955 56.4831 53.8877 56.041C54.3799 55.5944 55.0771 55.3711 55.9795 55.3711C56.3714 55.3711 56.7246 55.4167 57.0391 55.5078H59.6299ZM53.6553 64.2578C53.6553 64.6634 53.8262 64.971 54.168 65.1807C54.5098 65.3903 54.9997 65.4951 55.6377 65.4951C56.5902 65.4951 57.2943 65.3516 57.75 65.0645C58.2103 64.7819 58.4404 64.3968 58.4404 63.9092C58.4404 63.5036 58.3151 63.221 58.0645 63.0615C57.8138 62.9066 57.3421 62.8291 56.6494 62.8291H55.2891C54.7741 62.8291 54.373 62.9521 54.0859 63.1982C53.7988 63.4443 53.6553 63.7975 53.6553 64.2578ZM54.2705 57.9072C54.2705 58.4313 54.4186 58.8278 54.7148 59.0967C55.0111 59.3656 55.4235 59.5 55.9521 59.5C57.0596 59.5 57.6133 58.9622 57.6133 57.8867C57.6133 56.7611 57.0527 56.1982 55.9316 56.1982C55.3984 56.1982 54.9883 56.3418 54.7012 56.6289C54.4141 56.916 54.2705 57.3421 54.2705 57.9072ZM65.7754 63L65.5498 61.9336H65.4951C65.1214 62.403 64.7477 62.722 64.374 62.8906C64.0049 63.0547 63.5423 63.1367 62.9863 63.1367C62.2435 63.1367 61.6602 62.9453 61.2363 62.5625C60.8171 62.1797 60.6074 61.6351 60.6074 60.9287C60.6074 59.4157 61.8174 58.6227 64.2373 58.5498L65.5088 58.5088V58.0439C65.5088 57.4561 65.3812 57.0231 65.126 56.7451C64.8753 56.4626 64.472 56.3213 63.916 56.3213C63.2917 56.3213 62.5853 56.5127 61.7969 56.8955L61.4482 56.0273C61.8174 55.8268 62.2207 55.6696 62.6582 55.5557C63.1003 55.4417 63.5423 55.3848 63.9844 55.3848C64.8776 55.3848 65.5384 55.583 65.9668 55.9795C66.3997 56.376 66.6162 57.0117 66.6162 57.8867V63H65.7754ZM63.2119 62.2002C63.9183 62.2002 64.472 62.0065 64.873 61.6191C65.2786 61.2318 65.4814 60.6895 65.4814 59.9922V59.3154L64.3467 59.3633C63.4443 59.3952 62.7926 59.5365 62.3916 59.7871C61.9951 60.0332 61.7969 60.4183 61.7969 60.9424C61.7969 61.3525 61.9199 61.6647 62.166 61.8789C62.4167 62.0931 62.7653 62.2002 63.2119 62.2002ZM71.3809 62.2002C71.5814 62.2002 71.7751 62.1865 71.9619 62.1592C72.1488 62.1273 72.2969 62.0954 72.4062 62.0635V62.9316C72.2832 62.9909 72.1009 63.0387 71.8594 63.0752C71.6224 63.1162 71.4082 63.1367 71.2168 63.1367C69.7676 63.1367 69.043 62.3734 69.043 60.8467V56.3896H67.9697V55.8428L69.043 55.3711L69.5215 53.7715H70.1777V55.5078H72.3516V56.3896H70.1777V60.7988C70.1777 61.25 70.2848 61.5964 70.499 61.8379C70.7132 62.0794 71.0072 62.2002 71.3809 62.2002ZM77.0752 63.1367C75.9678 63.1367 75.0928 62.7995 74.4502 62.125C73.8122 61.4505 73.4932 60.514 73.4932 59.3154C73.4932 58.1077 73.7894 57.1484 74.3818 56.4375C74.9788 55.7266 75.7786 55.3711 76.7812 55.3711C77.7201 55.3711 78.4629 55.681 79.0098 56.3008C79.5566 56.916 79.8301 57.7295 79.8301 58.7412V59.459H74.6689C74.6917 60.3385 74.9128 61.0062 75.332 61.4619C75.7559 61.9176 76.3506 62.1455 77.1162 62.1455C77.9229 62.1455 78.7204 61.9769 79.5088 61.6396V62.6514C79.1077 62.8245 78.7272 62.9476 78.3672 63.0205C78.0117 63.098 77.5811 63.1367 77.0752 63.1367ZM76.7676 56.3213C76.166 56.3213 75.6852 56.5173 75.3252 56.9092C74.9697 57.3011 74.7601 57.8434 74.6963 58.5361H78.6133C78.6133 57.8206 78.4538 57.2738 78.1348 56.8955C77.8158 56.5127 77.36 56.3213 76.7676 56.3213ZM82.9609 61.373L83.0635 61.5303C82.945 61.986 82.7741 62.5146 82.5508 63.1162C82.3275 63.7223 82.0951 64.2852 81.8535 64.8047H80.999C81.1221 64.3307 81.2565 63.7451 81.4023 63.0479C81.5527 62.3506 81.6576 61.7923 81.7168 61.373H82.9609ZM89.0107 63V53.0059H90.1729V61.9473H94.582V63H89.0107ZM102.58 59.2471C102.58 60.4684 102.272 61.4232 101.657 62.1113C101.042 62.7949 100.192 63.1367 99.1074 63.1367C98.4375 63.1367 97.8428 62.9795 97.3232 62.665C96.8037 62.3506 96.4027 61.8994 96.1201 61.3115C95.8376 60.7236 95.6963 60.0355 95.6963 59.2471C95.6963 58.0257 96.0016 57.0755 96.6123 56.3965C97.223 55.7129 98.0706 55.3711 99.1553 55.3711C100.203 55.3711 101.035 55.7197 101.65 56.417C102.27 57.1143 102.58 58.0576 102.58 59.2471ZM96.8721 59.2471C96.8721 60.2041 97.0635 60.9333 97.4463 61.4346C97.8291 61.9359 98.3919 62.1865 99.1348 62.1865C99.8776 62.1865 100.44 61.9382 100.823 61.4414C101.211 60.9401 101.404 60.2087 101.404 59.2471C101.404 58.2946 101.211 57.5723 100.823 57.0801C100.44 56.5833 99.873 56.335 99.1211 56.335C98.3783 56.335 97.8177 56.5788 97.4395 57.0664C97.0612 57.554 96.8721 58.2809 96.8721 59.2471ZM109.703 63V58.1533C109.703 57.5426 109.564 57.0869 109.286 56.7861C109.008 56.4854 108.573 56.335 107.98 56.335C107.197 56.335 106.622 56.5469 106.258 56.9707C105.893 57.3945 105.711 58.0941 105.711 59.0693V63H104.576V55.5078H105.499L105.684 56.5332H105.738C105.971 56.1641 106.297 55.8792 106.716 55.6787C107.135 55.4736 107.602 55.3711 108.117 55.3711C109.02 55.3711 109.699 55.5898 110.154 56.0273C110.61 56.4603 110.838 57.1553 110.838 58.1123V63H109.703ZM118.275 61.9951H118.214C117.69 62.7562 116.906 63.1367 115.862 63.1367C114.882 63.1367 114.119 62.8018 113.572 62.1318C113.03 61.4619 112.759 60.5094 112.759 59.2744C112.759 58.0394 113.032 57.0801 113.579 56.3965C114.126 55.7129 114.887 55.3711 115.862 55.3711C116.879 55.3711 117.658 55.7402 118.2 56.4785H118.289L118.241 55.9385L118.214 55.4121V52.3633H119.349V63H118.426L118.275 61.9951ZM116.006 62.1865C116.781 62.1865 117.341 61.9769 117.688 61.5576C118.038 61.1338 118.214 60.4525 118.214 59.5137V59.2744C118.214 58.2126 118.036 57.4561 117.681 57.0049C117.33 56.5492 116.767 56.3213 115.992 56.3213C115.327 56.3213 114.816 56.5811 114.461 57.1006C114.11 57.6156 113.935 58.3447 113.935 59.2881C113.935 60.2451 114.11 60.9674 114.461 61.4551C114.812 61.9427 115.327 62.1865 116.006 62.1865ZM128.229 59.2471C128.229 60.4684 127.921 61.4232 127.306 62.1113C126.69 62.7949 125.84 63.1367 124.756 63.1367C124.086 63.1367 123.491 62.9795 122.972 62.665C122.452 62.3506 122.051 61.8994 121.769 61.3115C121.486 60.7236 121.345 60.0355 121.345 59.2471C121.345 58.0257 121.65 57.0755 122.261 56.3965C122.871 55.7129 123.719 55.3711 124.804 55.3711C125.852 55.3711 126.684 55.7197 127.299 56.417C127.919 57.1143 128.229 58.0576 128.229 59.2471ZM122.521 59.2471C122.521 60.2041 122.712 60.9333 123.095 61.4346C123.478 61.9359 124.04 62.1865 124.783 62.1865C125.526 62.1865 126.089 61.9382 126.472 61.4414C126.859 60.9401 127.053 60.2087 127.053 59.2471C127.053 58.2946 126.859 57.5723 126.472 57.0801C126.089 56.5833 125.521 56.335 124.77 56.335C124.027 56.335 123.466 56.5788 123.088 57.0664C122.71 57.554 122.521 58.2809 122.521 59.2471ZM135.352 63V58.1533C135.352 57.5426 135.213 57.0869 134.935 56.7861C134.657 56.4854 134.221 56.335 133.629 56.335C132.845 56.335 132.271 56.5469 131.906 56.9707C131.542 57.3945 131.359 58.0941 131.359 59.0693V63H130.225V55.5078H131.147L131.332 56.5332H131.387C131.619 56.1641 131.945 55.8792 132.364 55.6787C132.784 55.4736 133.251 55.3711 133.766 55.3711C134.668 55.3711 135.347 55.5898 135.803 56.0273C136.258 56.4603 136.486 57.1553 136.486 58.1123V63H135.352ZM140.014 61.373L140.116 61.5303C139.998 61.986 139.827 62.5146 139.604 63.1162C139.38 63.7223 139.148 64.2852 138.906 64.8047H138.052C138.175 64.3307 138.309 63.7451 138.455 63.0479C138.605 62.3506 138.71 61.7923 138.77 61.373H140.014ZM153.61 53.0059V59.4727C153.61 60.612 153.266 61.5075 152.578 62.1592C151.89 62.8109 150.944 63.1367 149.741 63.1367C148.538 63.1367 147.606 62.8086 146.945 62.1523C146.289 61.4961 145.961 60.5938 145.961 59.4453V53.0059H147.123V59.5273C147.123 60.3613 147.351 61.0016 147.807 61.4482C148.262 61.8949 148.932 62.1182 149.816 62.1182C150.66 62.1182 151.309 61.8949 151.765 61.4482C152.22 60.9971 152.448 60.3522 152.448 59.5137V53.0059H153.61ZM161.219 63V58.1533C161.219 57.5426 161.08 57.0869 160.802 56.7861C160.524 56.4854 160.089 56.335 159.496 56.335C158.712 56.335 158.138 56.5469 157.773 56.9707C157.409 57.3945 157.227 58.0941 157.227 59.0693V63H156.092V55.5078H157.015L157.199 56.5332H157.254C157.486 56.1641 157.812 55.8792 158.231 55.6787C158.651 55.4736 159.118 55.3711 159.633 55.3711C160.535 55.3711 161.214 55.5898 161.67 56.0273C162.126 56.4603 162.354 57.1553 162.354 58.1123V63H161.219ZM165.826 63H164.691V55.5078H165.826V63ZM164.596 53.4775C164.596 53.2178 164.66 53.0286 164.787 52.9102C164.915 52.7871 165.074 52.7256 165.266 52.7256C165.448 52.7256 165.605 52.7871 165.737 52.9102C165.869 53.0332 165.936 53.2223 165.936 53.4775C165.936 53.7327 165.869 53.9242 165.737 54.0518C165.605 54.1748 165.448 54.2363 165.266 54.2363C165.074 54.2363 164.915 54.1748 164.787 54.0518C164.66 53.9242 164.596 53.7327 164.596 53.4775ZM170.652 62.2002C170.853 62.2002 171.047 62.1865 171.233 62.1592C171.42 62.1273 171.568 62.0954 171.678 62.0635V62.9316C171.555 62.9909 171.372 63.0387 171.131 63.0752C170.894 63.1162 170.68 63.1367 170.488 63.1367C169.039 63.1367 168.314 62.3734 168.314 60.8467V56.3896H167.241V55.8428L168.314 55.3711L168.793 53.7715H169.449V55.5078H171.623V56.3896H169.449V60.7988C169.449 61.25 169.556 61.5964 169.771 61.8379C169.985 62.0794 170.279 62.2002 170.652 62.2002ZM176.347 63.1367C175.239 63.1367 174.364 62.7995 173.722 62.125C173.084 61.4505 172.765 60.514 172.765 59.3154C172.765 58.1077 173.061 57.1484 173.653 56.4375C174.25 55.7266 175.05 55.3711 176.053 55.3711C176.992 55.3711 177.734 55.681 178.281 56.3008C178.828 56.916 179.102 57.7295 179.102 58.7412V59.459H173.94C173.963 60.3385 174.184 61.0062 174.604 61.4619C175.027 61.9176 175.622 62.1455 176.388 62.1455C177.194 62.1455 177.992 61.9769 178.78 61.6396V62.6514C178.379 62.8245 177.999 62.9476 177.639 63.0205C177.283 63.098 176.853 63.1367 176.347 63.1367ZM176.039 56.3213C175.438 56.3213 174.957 56.5173 174.597 56.9092C174.241 57.3011 174.032 57.8434 173.968 58.5361H177.885C177.885 57.8206 177.725 57.2738 177.406 56.8955C177.087 56.5127 176.632 56.3213 176.039 56.3213ZM186.143 61.9951H186.081C185.557 62.7562 184.773 63.1367 183.729 63.1367C182.75 63.1367 181.986 62.8018 181.439 62.1318C180.897 61.4619 180.626 60.5094 180.626 59.2744C180.626 58.0394 180.899 57.0801 181.446 56.3965C181.993 55.7129 182.754 55.3711 183.729 55.3711C184.746 55.3711 185.525 55.7402 186.067 56.4785H186.156L186.108 55.9385L186.081 55.4121V52.3633H187.216V63H186.293L186.143 61.9951ZM183.873 62.1865C184.648 62.1865 185.208 61.9769 185.555 61.5576C185.906 61.1338 186.081 60.4525 186.081 59.5137V59.2744C186.081 58.2126 185.903 57.4561 185.548 57.0049C185.197 56.5492 184.634 56.3213 183.859 56.3213C183.194 56.3213 182.684 56.5811 182.328 57.1006C181.977 57.6156 181.802 58.3447 181.802 59.2881C181.802 60.2451 181.977 60.9674 182.328 61.4551C182.679 61.9427 183.194 62.1865 183.873 62.1865ZM200.655 63H199.288L195.645 58.1533L194.599 59.083V63H193.437V53.0059H194.599V57.9619L199.131 53.0059H200.505L196.485 57.3467L200.655 63ZM203 63H201.865V55.5078H203V63ZM201.77 53.4775C201.77 53.2178 201.833 53.0286 201.961 52.9102C202.089 52.7871 202.248 52.7256 202.439 52.7256C202.622 52.7256 202.779 52.7871 202.911 52.9102C203.043 53.0332 203.109 53.2223 203.109 53.4775C203.109 53.7327 203.043 53.9242 202.911 54.0518C202.779 54.1748 202.622 54.2363 202.439 54.2363C202.248 54.2363 202.089 54.1748 201.961 54.0518C201.833 53.9242 201.77 53.7327 201.77 53.4775ZM210.533 63V58.1533C210.533 57.5426 210.394 57.0869 210.116 56.7861C209.838 56.4854 209.403 56.335 208.811 56.335C208.027 56.335 207.452 56.5469 207.088 56.9707C206.723 57.3945 206.541 58.0941 206.541 59.0693V63H205.406V55.5078H206.329L206.514 56.5332H206.568C206.801 56.1641 207.127 55.8792 207.546 55.6787C207.965 55.4736 208.432 55.3711 208.947 55.3711C209.85 55.3711 210.529 55.5898 210.984 56.0273C211.44 56.4603 211.668 57.1553 211.668 58.1123V63H210.533ZM220.138 55.5078V56.2256L218.75 56.3896C218.878 56.5492 218.992 56.7588 219.092 57.0186C219.192 57.2738 219.242 57.5632 219.242 57.8867C219.242 58.6204 218.992 59.2061 218.49 59.6436C217.989 60.0811 217.301 60.2998 216.426 60.2998C216.202 60.2998 215.993 60.2816 215.797 60.2451C215.314 60.5003 215.072 60.8216 215.072 61.209C215.072 61.4141 215.157 61.5667 215.325 61.667C215.494 61.7627 215.783 61.8105 216.193 61.8105H217.52C218.331 61.8105 218.953 61.9814 219.386 62.3232C219.823 62.665 220.042 63.1618 220.042 63.8135C220.042 64.6429 219.709 65.2741 219.044 65.707C218.379 66.1445 217.408 66.3633 216.132 66.3633C215.152 66.3633 214.396 66.181 213.862 65.8164C213.334 65.4518 213.069 64.9368 213.069 64.2715C213.069 63.8158 213.215 63.4215 213.507 63.0889C213.799 62.7562 214.209 62.5306 214.737 62.4121C214.546 62.3255 214.384 62.1911 214.252 62.0088C214.124 61.8265 214.061 61.6146 214.061 61.373C214.061 61.0996 214.133 60.8604 214.279 60.6553C214.425 60.4502 214.655 60.252 214.97 60.0605C214.582 59.901 214.266 59.6299 214.02 59.2471C213.778 58.8643 213.657 58.4268 213.657 57.9346C213.657 57.1143 213.903 56.4831 214.396 56.041C214.888 55.5944 215.585 55.3711 216.487 55.3711C216.879 55.3711 217.232 55.4167 217.547 55.5078H220.138ZM214.163 64.2578C214.163 64.6634 214.334 64.971 214.676 65.1807C215.018 65.3903 215.507 65.4951 216.146 65.4951C217.098 65.4951 217.802 65.3516 218.258 65.0645C218.718 64.7819 218.948 64.3968 218.948 63.9092C218.948 63.5036 218.823 63.221 218.572 63.0615C218.322 62.9066 217.85 62.8291 217.157 62.8291H215.797C215.282 62.8291 214.881 62.9521 214.594 63.1982C214.307 63.4443 214.163 63.7975 214.163 64.2578ZM214.778 57.9072C214.778 58.4313 214.926 58.8278 215.223 59.0967C215.519 59.3656 215.931 59.5 216.46 59.5C217.567 59.5 218.121 58.9622 218.121 57.8867C218.121 56.7611 217.561 56.1982 216.439 56.1982C215.906 56.1982 215.496 56.3418 215.209 56.6289C214.922 56.916 214.778 57.3421 214.778 57.9072ZM226.775 61.9951H226.714C226.19 62.7562 225.406 63.1367 224.362 63.1367C223.382 63.1367 222.619 62.8018 222.072 62.1318C221.53 61.4619 221.259 60.5094 221.259 59.2744C221.259 58.0394 221.532 57.0801 222.079 56.3965C222.626 55.7129 223.387 55.3711 224.362 55.3711C225.379 55.3711 226.158 55.7402 226.7 56.4785H226.789L226.741 55.9385L226.714 55.4121V52.3633H227.849V63H226.926L226.775 61.9951ZM224.506 62.1865C225.281 62.1865 225.841 61.9769 226.188 61.5576C226.538 61.1338 226.714 60.4525 226.714 59.5137V59.2744C226.714 58.2126 226.536 57.4561 226.181 57.0049C225.83 56.5492 225.267 56.3213 224.492 56.3213C223.827 56.3213 223.316 56.5811 222.961 57.1006C222.61 57.6156 222.435 58.3447 222.435 59.2881C222.435 60.2451 222.61 60.9674 222.961 61.4551C223.312 61.9427 223.827 62.1865 224.506 62.1865ZM236.729 59.2471C236.729 60.4684 236.421 61.4232 235.806 62.1113C235.19 62.7949 234.34 63.1367 233.256 63.1367C232.586 63.1367 231.991 62.9795 231.472 62.665C230.952 62.3506 230.551 61.8994 230.269 61.3115C229.986 60.7236 229.845 60.0355 229.845 59.2471C229.845 58.0257 230.15 57.0755 230.761 56.3965C231.371 55.7129 232.219 55.3711 233.304 55.3711C234.352 55.3711 235.184 55.7197 235.799 56.417C236.419 57.1143 236.729 58.0576 236.729 59.2471ZM231.021 59.2471C231.021 60.2041 231.212 60.9333 231.595 61.4346C231.978 61.9359 232.54 62.1865 233.283 62.1865C234.026 62.1865 234.589 61.9382 234.972 61.4414C235.359 60.9401 235.553 60.2087 235.553 59.2471C235.553 58.2946 235.359 57.5723 234.972 57.0801C234.589 56.5833 234.021 56.335 233.27 56.335C232.527 56.335 231.966 56.5788 231.588 57.0664C231.21 57.554 231.021 58.2809 231.021 59.2471ZM248.274 63V58.126C248.274 57.529 248.147 57.0824 247.892 56.7861C247.636 56.4854 247.24 56.335 246.702 56.335C245.996 56.335 245.474 56.5378 245.137 56.9434C244.799 57.349 244.631 57.9733 244.631 58.8164V63H243.496V58.126C243.496 57.529 243.368 57.0824 243.113 56.7861C242.858 56.4854 242.459 56.335 241.917 56.335C241.206 56.335 240.684 56.5492 240.352 56.9775C240.023 57.4014 239.859 58.0986 239.859 59.0693V63H238.725V55.5078H239.647L239.832 56.5332H239.887C240.101 56.1686 240.402 55.8838 240.789 55.6787C241.181 55.4736 241.618 55.3711 242.102 55.3711C243.273 55.3711 244.038 55.7949 244.398 56.6426H244.453C244.676 56.2507 245 55.9408 245.424 55.7129C245.848 55.485 246.331 55.3711 246.873 55.3711C247.721 55.3711 248.354 55.5898 248.773 56.0273C249.197 56.4603 249.409 57.1553 249.409 58.1123V63H248.274Z" fill="white"/>
</svg>
